<?xml version="1.0" encoding="utf-8"?>
<!-- Generator: Adobe Illustrator 27.3.1, SVG Export Plug-In . SVG Version: 6.00 Build 0)  -->
<svg version="1.1" id="Layer_1" xmlns="http://www.w3.org/2000/svg" xmlns:xlink="http://www.w3.org/1999/xlink" x="0px" y="0px"
	 viewBox="0 0 50 50" style="enable-background:new 0 0 50 50;" xml:space="preserve">
<style type="text/css">
	.st0{fill:#4DAF5A;}
</style>
<path class="st0" d="M25,3.4c0.4,0,0.9,0.2,1.1,0.6c1.3,2,3.1,5.4,4.1,9.2c0.6,2.2,1,4.7,0.9,7.1c1-0.8,2-1.4,3-2
	c3.5-2,7.1-3.1,9.5-3.6c0.4-0.1,0.9,0.1,1.2,0.4s0.5,0.8,0.4,1.2c-0.5,2.4-1.6,6-3.6,9.4c-0.8,1.3-1.7,2.7-2.7,3.9
	c2.3,0.6,4.4,1.5,5.7,2.2c0.4,0.2,0.7,0.7,0.7,1.2s-0.3,0.9-0.7,1.2c-1.3,0.7-3.5,1.7-5.9,2.2C37,36.8,35,37,33.2,36.8l0.7,2.8
	c0.1,0.5,0,1-0.5,1.4s-1,0.4-1.5,0.2L27,38.6v6c0,1.1-0.9,2-2,2s-2-0.9-2-2v-6L18,41.1c-0.5,0.2-1,0.2-1.5-0.2S16,40,16.1,39.5
	l0.7-2.8c-1.9,0.2-3.8,0-5.5-0.4c-2.4-0.6-4.6-1.5-5.9-2.2C5,33.9,4.7,33.5,4.7,33S5,32,5.4,31.8c1.3-0.7,3.3-1.6,5.7-2.2
	c-1-1.2-2-2.5-2.7-3.9c-2-3.4-3.1-7.1-3.6-9.4c-0.1-0.4,0.1-0.9,0.4-1.2s0.8-0.5,1.2-0.4c2.3,0.5,6,1.6,9.5,3.6c1,0.6,2.1,1.2,3,2
	c-0.1-2.4,0.3-4.9,0.9-7.1C20.8,9.3,22.5,6,23.8,4c0.2-0.4,0.7-0.6,1.1-0.6l0,0C24.9,3.4,25,3.4,25,3.4z"/>
</svg>
